<svg id="Default" xmlns="http://www.w3.org/2000/svg" viewBox="0 0 699 165.62"><defs><style>.cls-1{fill:none;stroke:#1498d5;stroke-linecap:round;stroke-linejoin:round;stroke-width:4px;}</style></defs><title>mcteixeira-logo</title><polyline class="cls-1" points="61.5 110.55 61.5 55.07 85.81 82.87 110.13 55.07 110.13 110.55"/><path class="cls-1" d="M80.72,88.69a6.86,6.86,0,0,0-1.6,3.46A6.64,6.64,0,0,0,80.26,97a6.72,6.72,0,0,0,11.11,0,6.64,6.64,0,0,0,1.14-4.82,7,7,0,0,0-1.6-3.46l-5.1-5.82Z"/><path class="cls-1" d="M177.37,65.66a25.72,25.72,0,0,0-12.91-7.51,25.31,25.31,0,1,0,0,49.32A25.72,25.72,0,0,0,177.37,100"/><line class="cls-1" x1="253.6" y1="110.55" x2="253.6" y2="57.5"/><polyline class="cls-1" points="275.48 57.5 253.6 57.5 231.71 57.5"/><line class="cls-1" x1="333.84" y1="95.96" x2="297.36" y2="95.96"/><line class="cls-1" x1="333.84" y1="84.78" x2="297.36" y2="84.78"/><line class="cls-1" x1="375.18" y1="110.55" x2="426.24" y2="55.07"/><line class="cls-1" x1="375.18" y1="55.07" x2="426.24" y2="110.55"/><line class="cls-1" x1="482.17" y1="95.96" x2="445.69" y2="95.96"/><line class="cls-1" x1="482.17" y1="84.78" x2="445.69" y2="84.78"/><polyline class="cls-1" points="504.05 110.55 504.05 57.5 504.05 55.07"/><line class="cls-1" x1="569.71" y1="110.55" x2="558.61" y2="94.26"/><path class="cls-1" d="M528.37,110.55v-53h22a20,20,0,0,1,11.8,4,19,19,0,0,1,6,7.87,19.26,19.26,0,0,1,0,14.76,19,19,0,0,1-6,7.87,20,20,0,0,1-11.8,4h-22"/><line class="cls-1" x1="592.93" y1="96.08" x2="630.46" y2="96.08"/><line class="cls-1" x1="598.43" y1="84.78" x2="624.96" y2="84.78"/><line class="cls-1" x1="355.91" y1="110.55" x2="355.91" y2="57.5"/><polyline class="cls-1" points="333.84 57.5 297.37 57.5 297.37 108.12 333.84 108.12"/><polyline class="cls-1" points="482.17 57.5 445.69 57.5 445.69 108.12 482.17 108.12"/><polyline class="cls-1" points="585.9 110.55 611.7 57.5 637.5 110.55"/></svg>