<svg id="Default" xmlns="http://www.w3.org/2000/svg" viewBox="0 0 576.26 197.31"><defs><style>.cls-1{fill:#09c;}.cls-2{fill:none;stroke:#fff;stroke-linecap:round;stroke-width:17px;}</style></defs><title>mct-logo</title><rect class="cls-1" x="0.24" y="-0.19" width="576" height="197.4"/><line class="cls-2" x1="46.9" y1="150.24" x2="46.9" y2="97.85"/><line class="cls-2" x1="43.93" y1="41.08" x2="109.71" y2="102.52"/><line class="cls-2" x1="174.49" y1="42.08" x2="109.71" y2="102.52"/><line class="cls-2" x1="172.51" y1="151.03" x2="172.51" y2="97.85"/><path class="cls-2" d="M294.8,45.54A54.85,54.85,0,0,0,279,53,53.9,53.9,0,0,0,263.14,69.9a55.82,55.82,0,0,0-7.44,22.26,54,54,0,0,0,2.49,23,54.49,54.49,0,0,0,36.61,35.07"/><path class="cls-2" d="M324.9,150.24a55.55,55.55,0,0,0,8.69-3.33,54.51,54.51,0,0,0,21-18"/><path class="cls-2" d="M354.61,66.86a54.6,54.6,0,0,0-5.94-7.17,54,54,0,0,0-15.08-10.81,54.62,54.62,0,0,0-8.69-3.34"/><line class="cls-2" x1="476.81" y1="151.03" x2="476.81" y2="80.22"/><polyline class="cls-2" points="416.32 43.65 476.81 43.65 537.29 43.65"/></svg>